<?xml version="1.0" encoding="UTF-8"?>
<svg width="256" height="256" viewBox="0 0 24 24" fill="#232F3E" xmlns="http://www.w3.org/2000/svg"><path d="M19.112 18.231c-2.268 1.674-5.57 2.567-8.41 2.567-3.992 0-7.593-1.473-10.323-3.94-.214-.19-.024-.451.235-.302 2.939 1.709 6.574 2.738 10.33 2.738 2.535 0 5.313-.527 7.865-1.615.386-.165.707.257.303.552zM20.275 17.009c-.262-.336-1.731-.159-2.395-.08-.201.024-.231-.153-.05-.282 1.173-.824 3.095-.587 3.325-.311.23.277-.06 2.2-1.14 3.116-.17.144-.333.068-.258-.12.25-.623.8-2.021.54-2.33zM8.157 13.459l1.103-6.58h2.55l-1.103 6.58zm9.383-6.409a6.112 6.112 0 0 0-1.974-.327c-2.176 0-3.71 1.097-3.72 2.667-.012 1.16 1.092 1.808 1.927 2.195.86.398 1.15.652 1.145 1.007-.006.543-.688.79-1.327.79-.887 0-1.36-.123-2.086-.425l-.29-.132-.311 1.86c.518.237 1.474.446 2.467.456 2.333 0 3.851-1.085 3.864-2.767.013-.922-.583-1.622-1.86-2.199-.773-.375-1.246-.621-1.24-.999 0-.335.399-.694 1.265-.694.72-.012 1.246.146 1.65.312l.198.094zm-12.66-.171h3.936l-.285 1.733H5.488l-.48 2.868h2.833l-.284 1.732H4.724L4 18.72H1.452l1.428-8.27z"/></svg>
